<!--?xml version="1.0" standalone="no"?-->
              <svg id="sw-js-blob-svg" viewBox="0 0 100 100" xmlns="http://www.w3.org/2000/svg" version="1.1">
                    <defs> 
                        <linearGradient id="sw-gradient" x1="0" x2="1" y1="1" y2="0">
                            <stop id="stop1" stop-color="rgba(163, 217, 2, 0.7)" offset="0%"></stop>
                            <stop id="stop2" stop-color="rgba(163, 217, 2, 0.68)" offset="50%"></stop>
                        </linearGradient>
                    </defs>
                <path fill="url(#sw-gradient)" d="M26.7,-35C34.4,-31.2,40.1,-23.1,40.7,-14.8C41.2,-6.5,36.6,2,33.4,10.5C30.2,19.1,28.4,27.8,23,34.4C17.7,40.9,8.9,45.3,0.6,44.5C-7.7,43.7,-15.3,37.6,-21.4,31.3C-27.5,25,-32,18.5,-34.2,11.2C-36.4,4,-36.3,-3.9,-34.3,-11.5C-32.4,-19.2,-28.6,-26.7,-22.6,-31C-16.5,-35.3,-8.3,-36.5,0.6,-37.4C9.5,-38.3,19.1,-38.9,26.7,-35Z" width="100%" height="100%" transform="translate(50 50)" stroke-width="0" style="transition: 0.3s;" stroke="url(#sw-gradient)"></path>
              </svg>